/* XPM */
static char * table_xpm[] = {
"18 16 195 2",
"  	c None",
". 	c #E4CA83",
"+ 	c #E2C57A",
"@ 	c #F7EFDC",
"# 	c #EBD8A3",
"$ 	c #DAB756",
"% 	c #EAD59C",
"& 	c #E7CC88",
"* 	c #D7B04E",
"= 	c #E7D098",
"- 	c #F0E2B9",
"; 	c #DEBF65",
"> 	c #E5CF92",
", 	c #FCF8E6",
"' 	c #FEF6E3",
") 	c #F2DDAF",
"! 	c #F7E4B2",
"~ 	c #E1C072",
"{ 	c #D7AF56",
"] 	c #EBD8AD",
"^ 	c #F5EBCF",
"/ 	c #E2C778",
"( 	c #E0C67E",
"_ 	c #F7EED1",
": 	c #FFFFF6",
"< 	c #FFFEF0",
"[ 	c #FBEDCB",
"} 	c #DAAD50",
"| 	c #F7D78B",
"1 	c #F9E1AA",
"2 	c #F2D695",
"3 	c #DBB262",
"4 	c #D9B264",
"5 	c #F0E1C2",
"6 	c #E7D291",
"7 	c #D9B54E",
"8 	c #EDD9A5",
"9 	c #F5EBD2",
"0 	c #EDDEBE",
"a 	c #DEC995",
"b 	c #DBC389",
"c 	c #D6B870",
"d 	c #DDB969",
"e 	c #F5D790",
"f 	c #F5CF7F",
"g 	c #F8DB9D",
"h 	c #FAE3AA",
"i 	c #ECCA84",
"j 	c #D5A651",
"k 	c #DDBA7A",
"l 	c #D9B550",
"m 	c #FEF8E1",
"n 	c #F9EBCD",
"o 	c #EDD292",
"p 	c #EBCC84",
"q 	c #E5BF6F",
"r 	c #DBB156",
"s 	c #C8943B",
"t 	c #FAECCE",
"u 	c #FFF5D9",
"v 	c #FFEAB9",
"w 	c #FEDF95",
"x 	c #FFD577",
"y 	c #FFE4A5",
"z 	c #FBDC84",
"A 	c #CA9432",
"B 	c #D9B756",
"C 	c #FDF8E2",
"D 	c #FFF3D4",
"E 	c #FAE4B0",
"F 	c #F1CF86",
"G 	c #F5D07F",
"H 	c #F5D078",
"I 	c #E4B14C",
"J 	c #FFE9B6",
"K 	c #FFE19B",
"L 	c #FED678",
"M 	c #F5BD40",
"N 	c #E9B53D",
"O 	c #F1D590",
"P 	c #CB9639",
"Q 	c #D8B554",
"R 	c #FDF6E2",
"S 	c #FFF4DA",
"T 	c #FFF3D5",
"U 	c #FFEBBD",
"V 	c #F7D589",
"W 	c #F5C969",
"X 	c #E9B44C",
"Y 	c #FBDA8D",
"Z 	c #FFDC8C",
"` 	c #F9C448",
" .	c #ECB638",
"..	c #E8BF48",
"+.	c #E8BB4F",
"@.	c #F0D08C",
"#.	c #CA9437",
"$.	c #D7B252",
"%.	c #FCF6E2",
"&.	c #FFF4D7",
"*.	c #FFF2CE",
"=.	c #FFEFC8",
"-.	c #FFEBBA",
";.	c #FBDB92",
">.	c #F1C156",
",.	c #F9C248",
"'.	c #F0BD3B",
").	c #ECC547",
"!.	c #E9BD45",
"~.	c #E6B542",
"{.	c #E6B147",
"].	c #EECA88",
"^.	c #C99135",
"/.	c #D7AF4F",
"(.	c #FFF0C9",
"_.	c #FFEDBE",
":.	c #FFEAB3",
"<.	c #FFE7AD",
"[.	c #FED97C",
"}.	c #EFC748",
"|.	c #EAC443",
"1.	c #E8BE43",
"2.	c #E6B53F",
"3.	c #E3AB3A",
"4.	c #E1A740",
"5.	c #ECC583",
"6.	c #C88E33",
"7.	c #D4AA46",
"8.	c #FEFBE7",
"9.	c #FFF6DD",
"0.	c #FFEFC1",
"a.	c #FFEBB7",
"b.	c #FFE8AB",
"c.	c #FFE4A4",
"d.	c #FEE196",
"e.	c #EBC648",
"f.	c #E9BD40",
"g.	c #E6B43D",
"h.	c #E2A938",
"i.	c #DE9F32",
"j.	c #E6B66B",
"k.	c #EEC483",
"l.	c #C6882A",
"m.	c #DEBD73",
"n.	c #DCBD77",
"o.	c #F6E5BF",
"p.	c #FFF6DB",
"q.	c #FFEEC1",
"r.	c #FFE5A5",
"s.	c #FFE39F",
"t.	c #FEE194",
"u.	c #EAC146",
"v.	c #E6B53A",
"w.	c #E2AA37",
"x.	c #E5AF56",
"y.	c #EDC687",
"z.	c #E4B374",
"A.	c #CA904A",
"B.	c #D2A158",
"C.	c #ECD9B1",
"D.	c #D5AB55",
"E.	c #E0C07D",
"F.	c #FCEEC7",
"G.	c #FFF2CC",
"H.	c #FFE8A8",
"I.	c #FEE094",
"J.	c #E7BA41",
"K.	c #E4B145",
"L.	c #EFCA8A",
"M.	c #EBC182",
"N.	c #D09753",
"O.	c #CA933E",
"P.	c #E5CAA1",
"Q.	c #E4C995",
"R.	c #CE9C3F",
"S.	c #E5C482",
"T.	c #FFF4CC",
"U.	c #FFEFC4",
"V.	c #F1D28B",
"W.	c #F0CE8A",
"X.	c #D7A45F",
"Y.	c #C78C2F",
"Z.	c #DEBB85",
"`.	c #F6EDDC",
" +	c #DCB778",
".+	c #C88E2D",
"++	c #EBCD8F",
"@+	c #E2B76F",
"#+	c #C88E40",
"$+	c #D7AD6B",
"%+	c #F3E7D5",
"&+	c #EFDFC5",
"*+	c #D4A75F",
"=+	c #D2A358",
"-+	c #EDDABD",
"                . + @               ",
"            # $ % & * =             ",
"        - ; > , ' ) ! ~ { ]         ",
"    ^ / ( _ : < [ } | 1 2 3 4 5     ",
"  6 7 8 9 0 a b c d e f g h i j k   ",
"  l m n o p q r s t u v w x y z A   ",
"  B C D E F G H I E J K L M N O P   ",
"  Q R S T U V W X Y Z `  ...+.@.#.  ",
"  $.%.&.*.=.-.;.>.,.'.).!.~.{.].^.  ",
"  /.%.D (._.:.<.[.}.|.1.2.3.4.5.6.  ",
"  7.8.9.0.a.b.c.d.e.f.g.h.i.j.k.l.  ",
"  m.n.o.p.q.r.s.t.u.v.w.x.y.z.A.B.  ",
"    C.D.E.F.G.H.I.J.K.L.M.N.O.P.    ",
"        Q.R.S.T.U.V.W.X.Y.Z.        ",
"          `. +.+++@+#+$+%+          ",
"              &+*+=+-+              "};
